<?xml version="1.0" encoding="UTF-8" standalone="no"?>
<!-- Created with Inkscape (http://www.inkscape.org/) -->

<svg
   width="182.43848mm"
   height="121.74757mm"
   viewBox="0 0 182.43848 121.74757"
   version="1.1"
   id="svg5"
   xml:space="preserve"
   inkscape:version="1.2.1 (9c6d41e, 2022-07-14)"
   sodipodi:docname="logo.svg"
   inkscape:export-filename="logo.png"
   inkscape:export-xdpi="83.9457"
   inkscape:export-ydpi="83.9457"
   xmlns:inkscape="http://www.inkscape.org/namespaces/inkscape"
   xmlns:sodipodi="http://sodipodi.sourceforge.net/DTD/sodipodi-0.dtd"
   xmlns:xlink="http://www.w3.org/1999/xlink"
   xmlns="http://www.w3.org/2000/svg"
   xmlns:svg="http://www.w3.org/2000/svg"><sodipodi:namedview
     id="namedview7"
     pagecolor="#ffffff"
     bordercolor="#666666"
     borderopacity="1.0"
     inkscape:showpageshadow="2"
     inkscape:pageopacity="0"
     inkscape:pagecheckerboard="true"
     inkscape:deskcolor="#d1d1d1"
     inkscape:document-units="mm"
     showgrid="false"
     inkscape:zoom="0.56539286"
     inkscape:cx="319.24705"
     inkscape:cy="353.73634"
     inkscape:window-width="1920"
     inkscape:window-height="972"
     inkscape:window-x="1920"
     inkscape:window-y="25"
     inkscape:window-maximized="0"
     inkscape:current-layer="g5290"
     showborder="true" /><defs
     id="defs2"><linearGradient
       inkscape:collect="always"
       id="linearGradient5516"><stop
         style="stop-color:#f92800;stop-opacity:1;"
         offset="0"
         id="stop5512" /><stop
         style="stop-color:#ff7300;stop-opacity:1;"
         offset="1"
         id="stop5514" /></linearGradient><rect
       x="895.49908"
       y="115.54827"
       width="1225.637"
       height="198.08273"
       id="rect5458" /><inkscape:path-effect
       effect="powerclip"
       id="path-effect5284"
       is_visible="true"
       lpeversion="1"
       inverse="true"
       flatten="false"
       hide_clip="false"
       message="Use fill-rule evenodd on &lt;b&gt;fill and stroke&lt;/b&gt; dialog if no flatten result after convert clip to paths." /><linearGradient
       inkscape:collect="always"
       id="linearGradient3089"><stop
         style="stop-color:#00bad0;stop-opacity:1;"
         offset="0"
         id="stop3085" /><stop
         style="stop-color:#b200ff;stop-opacity:1;"
         offset="1"
         id="stop3087" /></linearGradient><clipPath
       clipPathUnits="userSpaceOnUse"
       id="clipPath2745"><rect
         style="fill:#0000ff;fill-opacity:1;stroke:none;stroke-width:3.57333;stroke-linecap:round;stroke-linejoin:round"
         id="rect2747"
         width="93.850784"
         height="52.858498"
         x="-209.2765"
         y="25.889881"
         ry="0" /></clipPath><clipPath
       clipPathUnits="userSpaceOnUse"
       id="clipPath2825"><rect
         style="fill:#0000ff;fill-opacity:0.255319;stroke:none;stroke-width:3.64553;stroke-linecap:round;stroke-linejoin:round"
         id="rect2827"
         width="93.850784"
         height="55.015984"
         x="-207.11899"
         y="233.28271"
         ry="0" /></clipPath><clipPath
       clipPathUnits="userSpaceOnUse"
       id="clipPath3023"><rect
         style="fill:#0000ff;fill-opacity:0.255319;stroke:none;stroke-width:4.19399;stroke-linecap:round;stroke-linejoin:round"
         id="rect3025"
         width="50.467754"
         height="96.525703"
         x="-353.51929"
         y="59.77734"
         ry="10.309557" /></clipPath><linearGradient
       inkscape:collect="always"
       xlink:href="#linearGradient3089"
       id="linearGradient3091"
       x1="-300.97284"
       y1="163.21486"
       x2="-119.79192"
       y2="57.581211"
       gradientUnits="userSpaceOnUse"
       gradientTransform="translate(315.79303,35.698342)" /><clipPath
       clipPathUnits="userSpaceOnUse"
       id="clipPath5276"><g
         id="g5282"
         style="display:none"><circle
           style="fill:#ffffff;fill-opacity:1;stroke:none;stroke-width:4.19399;stroke-linecap:round;stroke-linejoin:round"
           id="circle5278"
           cx="-240.54024"
           cy="-38.517799"
           r="12.261048"
           d="m -228.27919,-38.517799 a 12.261048,12.261048 0 0 1 -12.26105,12.261048 12.261048,12.261048 0 0 1 -12.26105,-12.261048 12.261048,12.261048 0 0 1 12.26105,-12.261049 12.261048,12.261048 0 0 1 12.26105,12.261049 z" /><circle
           style="fill:#ffffff;fill-opacity:1;stroke:none;stroke-width:4.19399;stroke-linecap:round;stroke-linejoin:round"
           id="circle5280"
           cx="-187.40904"
           cy="-38.517799"
           r="12.261048"
           d="m -175.14799,-38.517799 a 12.261048,12.261048 0 0 1 -12.26105,12.261048 12.261048,12.261048 0 0 1 -12.26105,-12.261048 12.261048,12.261048 0 0 1 12.26105,-12.261049 12.261048,12.261048 0 0 1 12.26105,12.261049 z" /></g><path
         id="lpe_path-effect5284"
         class="powerclip"
         d="m -278.92337,-71.854568 h 129.46662 v 64.074367 h -129.46662 z m 50.64418,33.336769 a 12.261048,12.261048 0 0 0 -12.26105,-12.261049 12.261048,12.261048 0 0 0 -12.26105,12.261049 12.261048,12.261048 0 0 0 12.26105,12.261048 12.261048,12.261048 0 0 0 12.26105,-12.261048 z m 53.1312,0 a 12.261048,12.261048 0 0 0 -12.26105,-12.261049 12.261048,12.261048 0 0 0 -12.26105,12.261049 12.261048,12.261048 0 0 0 12.26105,12.261048 12.261048,12.261048 0 0 0 12.26105,-12.261048 z" /></clipPath><linearGradient
       inkscape:collect="always"
       xlink:href="#linearGradient5516"
       id="linearGradient5518"
       x1="871.22217"
       y1="87.735634"
       x2="1301.2726"
       y2="261.05804"
       gradientUnits="userSpaceOnUse" /></defs><g
     inkscape:label="Layer 1"
     inkscape:groupmode="layer"
     id="layer1"
     transform="translate(-15.331393,-89.316075)"><g
       id="g5290"
       transform="translate(0.51120416,0.94962967)"><path
         id="rect1880"
         style="fill:url(#linearGradient3091);fill-opacity:1;stroke-width:4.19399;stroke-linecap:round;stroke-linejoin:round"
         d="m 26.147139,88.366445 a 11.32682,11.32682 0 0 0 -11.32695,11.32644 11.32682,11.32682 0 0 0 9.16946,11.092865 v 29.56615 c -5.23574,1.00232 -9.16946,5.5842 -9.16946,11.12077 v 46.38631 c 0,6.27505 5.0519,11.32644 11.32695,11.32644 6.27506,0 11.32696,-5.05139 11.32696,-11.32644 v -3.80648 c 9.796,20.00173 36.74285,15.66416 68.455251,15.66416 31.95123,0 59.06665,4.40501 68.6754,-16.1184 v 4.26072 c 0,6.27505 5.0519,11.32644 11.32696,11.32644 6.27508,0 11.32695,-5.05139 11.32695,-11.32644 v -46.38631 c 0,-5.53653 -3.93375,-10.1184 -9.16946,-11.12077 v -29.56615 a 11.32682,11.32682 0 0 0 9.16946,-11.092865 11.32682,11.32682 0 0 0 -11.32695,-11.32644 11.32682,11.32682 0 0 0 -11.32696,11.32644 11.32682,11.32682 0 0 0 9.16946,11.092865 v 29.56615 c -4.37644,0.83782 -7.84011,4.17734 -8.85992,8.48475 -9.32286,-31.92638 -36.68152,-55.049347 -68.98494,-55.049347 -32.169091,0 -59.432811,22.931497 -68.866081,54.651957 -1.13361,-4.11456 -4.51772,-7.27548 -8.75864,-8.08736 v -29.56615 a 11.32682,11.32682 0 0 0 9.16947,-11.092865 11.32682,11.32682 0 0 0 -11.32696,-11.32644 z" /><path
         style="fill:#ffffff;fill-opacity:0.791489;stroke:none;stroke-width:4.93948;stroke-linecap:round;stroke-linejoin:round"
         id="rect3217-0"
         width="119.46662"
         height="54.074368"
         x="-273.92337"
         y="-66.854568"
         ry="27.037184"
         clip-path="url(#clipPath5276)"
         inkscape:path-effect="#path-effect5284"
         d="m -246.88619,-66.854568 h 65.39226 c 14.9786,0 27.03718,12.058583 27.03718,27.037183 0,14.9786 -12.05858,27.037184 -27.03718,27.037184 h -65.39226 c -14.9786,0 -27.03718,-12.058584 -27.03718,-27.037184 0,-14.9786 12.05858,-27.037183 27.03718,-27.037183 z"
         sodipodi:type="rect"
         transform="translate(320.22948,209.61334)" /></g></g></svg>
