<?xml version="1.0" encoding="UTF-8" standalone="no"?>
<!-- Created with Inkscape (http://www.inkscape.org/) -->

<svg
   width="572.21136mm"
   height="121.74757mm"
   viewBox="0 0 572.21136 121.74757"
   version="1.1"
   id="svg5"
   xml:space="preserve"
   inkscape:version="1.2.1 (9c6d41e, 2022-07-14)"
   sodipodi:docname="installBotToDiscordNoText.svg"
   xmlns:inkscape="http://www.inkscape.org/namespaces/inkscape"
   xmlns:sodipodi="http://sodipodi.sourceforge.net/DTD/sodipodi-0.dtd"
   xmlns:xlink="http://www.w3.org/1999/xlink"
   xmlns="http://www.w3.org/2000/svg"
   xmlns:svg="http://www.w3.org/2000/svg"><sodipodi:namedview
     id="namedview7"
     pagecolor="#ffffff"
     bordercolor="#666666"
     borderopacity="1.0"
     inkscape:showpageshadow="2"
     inkscape:pageopacity="0"
     inkscape:pagecheckerboard="true"
     inkscape:deskcolor="#d1d1d1"
     inkscape:document-units="mm"
     showgrid="false"
     inkscape:zoom="0.24232298"
     inkscape:cx="464.25642"
     inkscape:cy="973.90681"
     inkscape:window-width="1920"
     inkscape:window-height="972"
     inkscape:window-x="1920"
     inkscape:window-y="25"
     inkscape:window-maximized="0"
     inkscape:current-layer="layer1"
     showborder="true" /><defs
     id="defs2"><linearGradient
       inkscape:collect="always"
       id="linearGradient5516"><stop
         style="stop-color:#f92800;stop-opacity:1;"
         offset="0"
         id="stop5512" /><stop
         style="stop-color:#ff7300;stop-opacity:1;"
         offset="1"
         id="stop5514" /></linearGradient><rect
       x="895.49908"
       y="115.54827"
       width="1225.637"
       height="198.08273"
       id="rect5458" /><inkscape:path-effect
       effect="powerclip"
       id="path-effect5284"
       is_visible="true"
       lpeversion="1"
       inverse="true"
       flatten="false"
       hide_clip="false"
       message="Use fill-rule evenodd on &lt;b&gt;fill and stroke&lt;/b&gt; dialog if no flatten result after convert clip to paths." /><linearGradient
       inkscape:collect="always"
       id="linearGradient3089"><stop
         style="stop-color:#00bad0;stop-opacity:1;"
         offset="0"
         id="stop3085" /><stop
         style="stop-color:#b200ff;stop-opacity:1;"
         offset="1"
         id="stop3087" /></linearGradient><clipPath
       clipPathUnits="userSpaceOnUse"
       id="clipPath2745"><rect
         style="fill:#0000ff;fill-opacity:1;stroke:none;stroke-width:3.57333;stroke-linecap:round;stroke-linejoin:round"
         id="rect2747"
         width="93.850784"
         height="52.858498"
         x="-209.2765"
         y="25.889881"
         ry="0" /></clipPath><clipPath
       clipPathUnits="userSpaceOnUse"
       id="clipPath2825"><rect
         style="fill:#0000ff;fill-opacity:0.255319;stroke:none;stroke-width:3.64553;stroke-linecap:round;stroke-linejoin:round"
         id="rect2827"
         width="93.850784"
         height="55.015984"
         x="-207.11899"
         y="233.28271"
         ry="0" /></clipPath><clipPath
       clipPathUnits="userSpaceOnUse"
       id="clipPath3023"><rect
         style="fill:#0000ff;fill-opacity:0.255319;stroke:none;stroke-width:4.19399;stroke-linecap:round;stroke-linejoin:round"
         id="rect3025"
         width="50.467754"
         height="96.525703"
         x="-353.51929"
         y="59.77734"
         ry="10.309557" /></clipPath><linearGradient
       inkscape:collect="always"
       xlink:href="#linearGradient3089"
       id="linearGradient3091"
       x1="-300.97284"
       y1="163.21486"
       x2="-119.79192"
       y2="57.581211"
       gradientUnits="userSpaceOnUse"
       gradientTransform="translate(315.79303,35.698342)" /><clipPath
       clipPathUnits="userSpaceOnUse"
       id="clipPath5276"><g
         id="g5282"
         style="display:none"><circle
           style="fill:#ffffff;fill-opacity:1;stroke:none;stroke-width:4.19399;stroke-linecap:round;stroke-linejoin:round"
           id="circle5278"
           cx="-240.54024"
           cy="-38.517799"
           r="12.261048"
           d="m -228.27919,-38.517799 a 12.261048,12.261048 0 0 1 -12.26105,12.261048 12.261048,12.261048 0 0 1 -12.26105,-12.261048 12.261048,12.261048 0 0 1 12.26105,-12.261049 12.261048,12.261048 0 0 1 12.26105,12.261049 z" /><circle
           style="fill:#ffffff;fill-opacity:1;stroke:none;stroke-width:4.19399;stroke-linecap:round;stroke-linejoin:round"
           id="circle5280"
           cx="-187.40904"
           cy="-38.517799"
           r="12.261048"
           d="m -175.14799,-38.517799 a 12.261048,12.261048 0 0 1 -12.26105,12.261048 12.261048,12.261048 0 0 1 -12.26105,-12.261048 12.261048,12.261048 0 0 1 12.26105,-12.261049 12.261048,12.261048 0 0 1 12.26105,12.261049 z" /></g><path
         id="lpe_path-effect5284"
         class="powerclip"
         d="m -278.92337,-71.854568 h 129.46662 v 64.074367 h -129.46662 z m 50.64418,33.336769 a 12.261048,12.261048 0 0 0 -12.26105,-12.261049 12.261048,12.261048 0 0 0 -12.26105,12.261049 12.261048,12.261048 0 0 0 12.26105,12.261048 12.261048,12.261048 0 0 0 12.26105,-12.261048 z m 53.1312,0 a 12.261048,12.261048 0 0 0 -12.26105,-12.261049 12.261048,12.261048 0 0 0 -12.26105,12.261049 12.261048,12.261048 0 0 0 12.26105,12.261048 12.261048,12.261048 0 0 0 12.26105,-12.261048 z" /></clipPath><linearGradient
       inkscape:collect="always"
       xlink:href="#linearGradient5516"
       id="linearGradient5518"
       x1="871.22217"
       y1="87.735634"
       x2="1301.2726"
       y2="261.05804"
       gradientUnits="userSpaceOnUse" /></defs><g
     inkscape:label="Layer 1"
     inkscape:groupmode="layer"
     id="layer1"
     transform="translate(-15.331393,-89.316075)"><g
       id="g5290"
       transform="translate(0.51120416,0.94962967)"><path
         id="rect1880"
         style="fill:url(#linearGradient3091);fill-opacity:1;stroke-width:4.19399;stroke-linecap:round;stroke-linejoin:round"
         d="m 26.147139,88.366445 a 11.32682,11.32682 0 0 0 -11.32695,11.32644 11.32682,11.32682 0 0 0 9.16946,11.092865 v 29.56615 c -5.23574,1.00232 -9.16946,5.5842 -9.16946,11.12077 v 46.38631 c 0,6.27505 5.0519,11.32644 11.32695,11.32644 6.27506,0 11.32696,-5.05139 11.32696,-11.32644 v -3.80648 c 9.796,20.00173 36.74285,15.66416 68.455251,15.66416 31.95123,0 59.06665,4.40501 68.6754,-16.1184 v 4.26072 c 0,6.27505 5.0519,11.32644 11.32696,11.32644 6.27508,0 11.32695,-5.05139 11.32695,-11.32644 v -46.38631 c 0,-5.53653 -3.93375,-10.1184 -9.16946,-11.12077 v -29.56615 a 11.32682,11.32682 0 0 0 9.16946,-11.092865 11.32682,11.32682 0 0 0 -11.32695,-11.32644 11.32682,11.32682 0 0 0 -11.32696,11.32644 11.32682,11.32682 0 0 0 9.16946,11.092865 v 29.56615 c -4.37644,0.83782 -7.84011,4.17734 -8.85992,8.48475 -9.32286,-31.92638 -36.68152,-55.049347 -68.98494,-55.049347 -32.169091,0 -59.432811,22.931497 -68.866081,54.651957 -1.13361,-4.11456 -4.51772,-7.27548 -8.75864,-8.08736 v -29.56615 a 11.32682,11.32682 0 0 0 9.16947,-11.092865 11.32682,11.32682 0 0 0 -11.32696,-11.32644 z" /><path
         style="fill:#ffffff;fill-opacity:0.791489;stroke:none;stroke-width:4.93948;stroke-linecap:round;stroke-linejoin:round"
         id="rect3217-0"
         width="119.46662"
         height="54.074368"
         x="-273.92337"
         y="-66.854568"
         ry="27.037184"
         clip-path="url(#clipPath5276)"
         inkscape:path-effect="#path-effect5284"
         d="m -246.88619,-66.854568 h 65.39226 c 14.9786,0 27.03718,12.058583 27.03718,27.037183 0,14.9786 -12.05858,27.037184 -27.03718,27.037184 h -65.39226 c -14.9786,0 -27.03718,-12.058584 -27.03718,-27.037184 0,-14.9786 12.05858,-27.037183 27.03718,-27.037183 z"
         sodipodi:type="rect"
         transform="translate(320.22948,209.61334)" /></g><g
       id="g5390"
       transform="matrix(2.0079607,0,0,2.0079607,252.25553,128.55502)"
       style="fill:#ffffff;fill-opacity:1"><path
         d="M 3.0696,14.35003 C 17.84812,9.68542 33.61791,8.66013 48.83196,11.734 c 4.44585,0.89825 8.8161,2.1243 13.095,3.6261 1.274,0.44715 2.73515,-0.50817 3.0753,-1.7461 0.37901,-1.37937 -0.46745,-2.62652 -1.7461,-3.0753 C 47.82195,5.12165 31.2588,3.6356 15.11839,6.30519 10.58621,7.0548 6.12032,8.14618 1.7404,9.52864 c -3.05767,0.9651 -1.75165,5.79382 1.3292,4.82139 z"
         fill="#01010c"
         origin="undraw"
         id="path5378"
         style="fill:#ffffff;fill-opacity:1" /><path
         d="m 55.97417,3.76117 2.58581,4.86421 1.32984,2.5016 0.66492,1.2508 c 0.08649,0.16269 0.16913,0.42327 0.29552,0.55591 -0.51452,-0.53997 1.42541,-2.15361 0.51312,-1.82543 -0.8054,0.28974 -1.58804,0.8423 -2.34456,1.24356 -0.82749,0.4389 -1.65498,0.87781 -2.48247,1.31671 -1.65498,0.87781 -3.30996,1.75562 -4.96494,2.63342 -1.15699,0.61367 -1.60767,2.31798 -0.89688,3.42047 0.75851,1.17651 2.18291,1.55329 3.42047,0.89688 1.93081,-1.02411 3.86162,-2.04822 5.79243,-3.07233 0.91943,-0.48767 1.83887,-0.97534 2.7583,-1.46301 1.14784,-0.60882 2.34415,-1.1119 2.8815,-2.38522 0.54904,-1.30103 0.0367,-2.54313 -0.58127,-3.70559 L 63.39447,7.07462 C 62.36015,5.12893 61.32582,3.18325 60.2915,1.23756 59.67677,0.08118 57.97425,-0.37058 56.87103,0.34068 55.69538,1.09864 55.3166,2.52423 55.97415,3.76115 v 0 z"
         fill="#01010c"
         id="path5380"
         style="fill:#ffffff;fill-opacity:1" /></g><path
       d="m 563.81431,100.18667 c -10.04535,-4.699942 -20.78633,-8.11568 -32.0157,-10.060648 -1.3791,2.493364 -2.9903,5.846987 -4.10114,8.514782 -11.93714,-1.795197 -23.76448,-1.795197 -35.48207,0 -1.11063,-2.667795 -2.75842,-6.021418 -4.14985,-8.514782 -11.24151,1.944968 -21.99481,5.373237 -32.04016,10.085558 -20.26157,30.61786 -25.75413,60.47522 -23.00785,89.90863 13.43854,10.03556 26.4621,16.13188 39.26587,20.12113 3.16131,-4.35088 5.98079,-8.97598 8.40968,-13.85038 -4.62594,-1.75775 -9.05659,-3.92692 -13.24304,-6.44517 1.11063,-0.82282 2.19703,-1.68309 3.24664,-2.56824 25.53433,11.94307 53.27807,11.94307 78.50738,0 1.06193,0.88515 2.14809,1.74542 3.24661,2.56824 -4.19877,2.5306 -8.64157,4.69974 -13.26751,6.45771 2.42892,4.86186 5.23625,9.49952 8.4097,13.85019 12.81612,-3.98925 25.85175,-10.08536 39.2903,-20.13348 3.22237,-34.12082 -5.50472,-63.70398 -23.06886,-89.93354 z m -79.64249,71.83228 c -7.66517,0 -13.95123,-7.1559 -13.95123,-15.87 0,-8.7141 6.15182,-15.88235 13.95123,-15.88235 7.79958,0 14.08544,7.15569 13.9512,15.88235 0.0115,8.7141 -6.15162,15.87 -13.9512,15.87 z m 51.55712,0 c -7.66517,0 -13.95123,-7.1559 -13.95123,-15.87 0,-8.7141 6.15162,-15.88235 13.95123,-15.88235 7.79938,0 14.08544,7.15569 13.9512,15.88235 0,8.7141 -6.15182,15.87 -13.9512,15.87 z"
       fill="#5865f2"
       fill-rule="nonzero"
       id="path5392"
       style="stroke-width:0.606188" /></g></svg>
